#!OML:ASF F:\VICON\USERDATA\INSTALL\rory3\rory3.ASF
:FULLY-SPECIFIED
:DEGREES
77
root 1.16341 16.4447 -17.1355 9.73897 -1.17728 -0.518129
lowerback 17.3904 -0.0513495 0.202319
upperback 2.07152 0.137551 2.06224
thorax -7.53121 0.0903369 2.06569
lowerneck -23.8714 -4.56562 -8.62393
upperneck 8.75418 -4.52014 7.18868
head 6.8589 -1.82531 3.18247
rclavicle -1.78906e-015 -1.19271e-015
rhumerus -26.6099 -1.51827 -83.6548
rradius 44.2091
rwrist 3.38975
rhand -11.012 7.40498
rfingers 7.12502
rthumb 15.0089 -22.0311
lclavicle -1.78906e-015 -1.19271e-015
lhumerus -25.8216 -1.29418 88.2173
lradius 37.8243
lwrist -5.96332
lhand -14.7497 24.162
lfingers 7.12502
lthumb 11.4061 53.8318
rfemur -36.5303 -3.02689 22.351
rtibia 56.525
rfoot -22.745 -11.2025
rtoes -2.03872
lfemur -36.6916 6.39753 -21.4638
ltibia 55.1478
lfoot -25.349 -0.923212
ltoes 1.5114
78
root 1.16253 16.3636 -17.1582 9.94851 -1.0869 -0.494103
lowerback 17.6113 -0.0693483 0.195953
upperback 2.08234 0.114478 2.04735
thorax -7.63991 0.0797492 2.06093
lowerneck -23.9448 -4.58389 -8.59537
upperneck 8.63736 -4.54374 7.1994
head 6.83332 -1.83315 3.17758
rclavicle 7.95139e-016 -1.39149e-014
rhumerus -26.7005 -1.50594 -83.599
rradius 44.7958
rwrist 3.86771
rhand -14.8564 13.5893
rfingers 7.12502
rthumb 11.3033 -16.0861
lclavicle 7.95139e-016 -1.39149e-014
lhumerus -25.5369 -1.36667 88.1583
lradius 37.6932
lwrist -6.13233
lhand -14.9504 24.3696
lfingers 7.12502
lthumb 11.2126 54.05
rfemur -37.6471 -3.20672 22.4411
rtibia 58.0575
rfoot -23.2562 -11.4374
rtoes -2.58147
lfemur -37.8088 6.5032 -21.5392
ltibia 56.5327
lfoot -25.7491 -1.05817
ltoes 1.58359
79
root 1.15978 16.2819 -17.1792 10.0779 -1.04803 -0.457767
lowerback 17.8523 -0.0738886 0.159973
upperback 2.13332 0.102974 2.03548
thorax -7.71646 0.075306 2.07338
lowerneck -24.055 -4.69821 -8.63444
upperneck 8.58783 -4.68006 7.24285
head 6.8471 -1.89391 3.17933
rclavicle 3.18055e-015 9.14409e-015
rhumerus -26.4929 -1.6225 -83.4632
rradius 44.9055
rwrist 5.54046
rhand -16.3831 16.1167
rfingers 7.12502
rthumb 9.83061 -13.6338
lclavicle 3.18055e-015 9.14409e-015
lhumerus -25.2553 -1.43711 88.1238
lradius 37.5456
lwrist -6.20265
lhand -15.1818 23.9247
lfingers 7.12502
lthumb 10.9894 53.6171
rfemur -38.6882 -3.34611 22.5253
rtibia 59.5736
rfoot -23.6573 -11.7271
rtoes -3.0312
lfemur -38.7882 6.67473 -21.6147
ltibia 57.9139
lfoot -26.187 -1.23983
ltoes 1.91158
80
root 1.15604 16.1945 -17.1969 10.2268 -1.07745 -0.453179
lowerback 18.1274 -0.0800658 0.11282
upperback 2.10851 0.0904349 2.04356
thorax -7.89378 0.0719969 2.1154
lowerneck -23.8019 -4.71771 -8.76437
upperneck 8.31656 -4.69044 7.34044
head 6.72585 -1.89965 3.23213
rclavicle 3.57812e-015 -1.70955e-014
rhumerus -26.3732 -1.59725 -83.4033
rradius 44.7106
rwrist 7.41619
rhand -17.1619 15.7825
rfingers 7.12502
rthumb 9.07914 -14.0021
lclavicle 3.57812e-015 -1.70955e-014
lhumerus -25.0154 -1.48209 88.0858
lradius 37.3234
lwrist -5.91018
lhand -15.1141 23.7822
lfingers 7.12502
lthumb 11.0547 53.4711
rfemur -39.7313 -3.36515 22.6109
rtibia 61.0793
rfoot -24.1358 -11.8854
rtoes -2.8983
lfemur -39.8219 6.92008 -21.6908
ltibia 59.315
lfoot -26.6057 -1.19903
ltoes 1.37435
81
root 1.15421 16.1035 -17.2139 10.4135 -1.06693 -0.440192
lowerback 18.4733 -0.0959875 0.0689163
upperback 2.02942 0.0701283 2.08172
thorax -8.16887 0.0664665 2.19185
lowerneck -23.659 -4.71287 -9.06994
upperneck 8.14713 -4.62778 7.56136
head 6.65695 -1.86293 3.36343
rclavicle 1.43125e-014 -2.3059e-014
rhumerus -26.434 -1.44194 -83.3349
rradius 44.862
rwrist 8.59398
rhand -17.6425 15.0005
rfingers 7.12502
rthumb 8.61536 -14.8037
lclavicle 1.43125e-014 -2.3059e-014
lhumerus -24.8364 -1.40708 88.0731
lradius 37.1326
lwrist -5.70528
lhand -14.8999 24.3202
lfingers 7.12502
lthumb 11.2613 53.998
rfemur -40.8138 -3.37098 22.6665
rtibia 62.5592
rfoot -24.6618 -12.1275
rtoes -3.16806
lfemur -40.9742 7.12969 -21.8175
ltibia 60.7166
lfoot -26.9858 -0.939558
ltoes -0.159229
82
root 1.15285 16.0127 -17.23 10.6433 -0.948129 -0.455376
lowerback 18.7962 -0.0935705 0.115699
upperback 1.9488 0.089345 2.08758
thorax -8.43472 0.0764208 2.17163
lowerneck -23.7984 -4.77492 -9.09029
upperneck 8.12423 -4.69457 7.58538
head 6.67762 -1.89072 3.36502
rclavicle -5.36719e-015 -7.95139e-015
rhumerus -26.4697 -1.62667 -83.2229
rradius 45.2001
rwrist 9.46546
rhand -17.8236 15.2014
rfingers 7.12502
rthumb 8.44059 -14.6099
lclavicle -5.36719e-015 -7.95139e-015
lhumerus -24.7178 -1.43735 88.0187
lradius 37.0251
lwrist -5.96651
lhand -14.7599 24.5028
lfingers 7.12502
lthumb 11.3963 54.1731
rfemur -41.9381 -3.42393 22.77
rtibia 64.0039
rfoot -25.091 -12.5064
rtoes -4.19033
lfemur -42.1775 7.18882 -21.8844
ltibia 62.149
lfoot -27.3067 -0.764703
ltoes -1.28251
83
root 1.15163 15.9218 -17.2422 10.7917 -0.846573 -0.517417
lowerback 19.1056 -0.094022 0.2125
upperback 1.95052 0.112082 2.07496
thorax -8.60321 0.0847144 2.10042
lowerneck -23.989 -4.80717 -8.83559
upperneck 7.99831 -4.76676 7.40426
head 6.65974 -1.92925 3.25274
rclavicle 3.37934e-015 -1.94809e-014
rhumerus -26.4329 -1.84769 -83.1585
rradius 45.4841
rwrist 10.3153
rhand -18.0542 15.3935
rfingers 7.12502
rthumb 8.21801 -14.4267
lclavicle 3.37934e-015 -1.94809e-014
lhumerus -24.3991 -1.46747 87.9006
lradius 36.7023
lwrist -6.28196
lhand -14.7453 24.4055
lfingers 7.12502
lthumb 11.4104 54.0751
rfemur -42.9163 -3.4505 22.9286
rtibia 65.4093
rfoot -25.4306 -12.9237
rtoes -5.24054
lfemur -43.2189 7.23221 -21.8511
ltibia 63.6095
lfoot -27.613 -0.910549
ltoes -0.912621
